<?xml version="1.0" encoding="utf-8"?>
<!-- Generator: Adobe Illustrator 15.1.0, SVG Export Plug-In . SVG Version: 6.00 Build 0)  -->
<!DOCTYPE svg PUBLIC "-//W3C//DTD SVG 1.1//EN" "http://www.w3.org/Graphics/SVG/1.1/DTD/svg11.dtd">
<svg version="1.1" id="Layer_1" xmlns="http://www.w3.org/2000/svg" xmlns:xlink="http://www.w3.org/1999/xlink" x="0px" y="0px"
	 width="200px" height="56px" viewBox="0 0 200 56" enable-background="new 0 0 200 56" xml:space="preserve">
<rect y="-67.346" width="200" height="46"/>
<polygon points="9.721,-63.346 1.442,-63.346 5.582,-70.513 9.721,-77.681 13.861,-70.513 18,-63.346 "/>
<g>
	<path d="M200,52.654c0,2.2-1.8,4-4,4H4c-2.2,0-4-1.8-4-4v-38c0-2.2,1.8-4,4-4h192c2.2,0,4,1.8,4,4V52.654z"/>
</g>
<polygon points="9.721,14.654 1.442,14.654 5.582,7.487 9.721,0.319 13.861,7.487 18,14.654 "/>
</svg>
